# xmcd
#
# Track frame offsets: 
#        150
#        11075
#        21050
#        33425
#        44362
#        53325
#        66875
#        78487
#        90300
#        101137
#        113100
#        124250
#        136337
#        147462
#        157025
#        167287
#        177537
#        187542
#        197762
#        209662
#
# Disc length: 2980 seconds
#
# Revision: 2
# Processed by: cddbd v1.5.2PL0 Copyright (c) Steve Scherf et al.
# Submitted via: ExactAudioCopy v0.99pb5
#
DISCID=0f0ba214
DTITLE=Paul Anka - The Most of Paul Anka
DYEAR=1994
DGENRE=Pop
TTITLE0=Diana
TTITLE1=I Love You Baby
TTITLE2=You Are My Destiny
TTITLE3=Crazy Love
TTITLE4=Let the Bells Keep Ringing
TTITLE5=(All of a Sudden) My Heart Sings
TTITLE6=Lonely Boy
TTITLE7=Put Your Head on My Shoulder
TTITLE8=It's Time to Cry
TTITLE9=Puppy Love
TTITLE10=My Home Town
TTITLE11=Summer's Gone
TTITLE12=The Story of My Love
TTITLE13=Tonight My Love, Tonight
TTITLE14=Dance on Little Girl
TTITLE15=Love Me Warm and Tender
TTITLE16=A Steel Guitar and a Glass of Wine
TTITLE17=Eso Beso
TTITLE18=(You're) Having My Baby
TTITLE19=One Man Woman, One Woman Man
EXTD=
EXTT0=
EXTT1=
EXTT2=
EXTT3=
EXTT4=
EXTT5=
EXTT6=
EXTT7=
EXTT8=
EXTT9=
EXTT10=
EXTT11=
EXTT12=
EXTT13=
EXTT14=
EXTT15=
EXTT16=
EXTT17=
EXTT18=
EXTT19=
PLAYORDER=
